<mxfile host="app.diagrams.net" agent="Mozilla/5.0 (Windows NT 10.0; Win64; x64) AppleWebKit/537.36 (KHTML, like Gecko) Chrome/140.0.0.0 Safari/537.36" version="28.2.3">
  <diagram name="Página-1" id="g8GATzoZ3PU2PJkQY573">
    <mxGraphModel dx="2253" dy="743" grid="1" gridSize="10" guides="1" tooltips="1" connect="1" arrows="1" fold="1" page="1" pageScale="1" pageWidth="827" pageHeight="1169" math="0" shadow="0" adaptiveColors="simple">
      <root>
        <mxCell id="0" />
        <mxCell id="1" parent="0" />
        <mxCell id="KAtS_63pX_l5U38s632_-17" style="rounded=0;orthogonalLoop=1;jettySize=auto;html=1;endArrow=none;endFill=0;strokeWidth=1;fontSize=14;" edge="1" parent="1" source="KAtS_63pX_l5U38s632_-1" target="KAtS_63pX_l5U38s632_-15">
          <mxGeometry relative="1" as="geometry" />
        </mxCell>
        <mxCell id="KAtS_63pX_l5U38s632_-1" value="Usuário" style="shape=umlActor;verticalLabelPosition=bottom;verticalAlign=top;html=1;outlineConnect=0;strokeWidth=2;fontSize=14;" vertex="1" parent="1">
          <mxGeometry x="-10" y="510" width="30" height="60" as="geometry" />
        </mxCell>
        <mxCell id="KAtS_63pX_l5U38s632_-2" value="" style="swimlane;startSize=0;strokeWidth=2;fontSize=14;" vertex="1" parent="1">
          <mxGeometry x="120" y="180" width="780" height="690" as="geometry">
            <mxRectangle x="60" y="70" width="50" height="40" as="alternateBounds" />
          </mxGeometry>
        </mxCell>
        <mxCell id="KAtS_63pX_l5U38s632_-40" value="&lt;font style=&quot;font-size: 14px;&quot;&gt;&lt;b&gt;&amp;lt;&amp;lt; Extend &amp;gt;&amp;gt;&lt;/b&gt;&lt;/font&gt;" style="rounded=0;orthogonalLoop=1;jettySize=auto;html=1;dashed=1;dashPattern=8 8;" edge="1" parent="KAtS_63pX_l5U38s632_-2" source="KAtS_63pX_l5U38s632_-6" target="KAtS_63pX_l5U38s632_-9">
          <mxGeometry relative="1" as="geometry" />
        </mxCell>
        <mxCell id="KAtS_63pX_l5U38s632_-6" value="Gerenciar Nota" style="ellipse;whiteSpace=wrap;html=1;strokeWidth=2;fontSize=14;fillColor=light-dark(#FFF8D6,#FFF4C3);" vertex="1" parent="KAtS_63pX_l5U38s632_-2">
          <mxGeometry x="150" y="280" width="120" height="80" as="geometry" />
        </mxCell>
        <mxCell id="KAtS_63pX_l5U38s632_-9" value="Fixar Notas" style="ellipse;whiteSpace=wrap;html=1;strokeWidth=2;fontSize=14;fillColor=light-dark(#FFF8D6,#FFF4C3);" vertex="1" parent="KAtS_63pX_l5U38s632_-2">
          <mxGeometry x="580" y="220" width="120" height="80" as="geometry" />
        </mxCell>
        <mxCell id="KAtS_63pX_l5U38s632_-34" value="&lt;b&gt;&lt;font&gt;&amp;lt;&amp;lt; Include &amp;gt;&amp;gt;&lt;/font&gt;&lt;/b&gt;" style="rounded=0;orthogonalLoop=1;jettySize=auto;html=1;dashed=1;dashPattern=8 8;strokeWidth=1;fontSize=14;" edge="1" parent="KAtS_63pX_l5U38s632_-2" source="KAtS_63pX_l5U38s632_-12" target="KAtS_63pX_l5U38s632_-30">
          <mxGeometry relative="1" as="geometry" />
        </mxCell>
        <mxCell id="KAtS_63pX_l5U38s632_-12" value="Concluir Tarefa" style="ellipse;whiteSpace=wrap;html=1;strokeWidth=2;fontSize=14;fillColor=light-dark(#FFF8D6,#FFF4C3);" vertex="1" parent="KAtS_63pX_l5U38s632_-2">
          <mxGeometry x="440" y="340" width="120" height="80" as="geometry" />
        </mxCell>
        <mxCell id="KAtS_63pX_l5U38s632_-13" value="Definir Prazo da Tarefa" style="ellipse;whiteSpace=wrap;html=1;strokeWidth=2;fontSize=14;fillColor=light-dark(#FFF8D6,#FFF4C3);" vertex="1" parent="KAtS_63pX_l5U38s632_-2">
          <mxGeometry x="460" y="540" width="120" height="80" as="geometry" />
        </mxCell>
        <mxCell id="KAtS_63pX_l5U38s632_-36" value="&lt;font style=&quot;font-size: 14px;&quot;&gt;&lt;b style=&quot;&quot;&gt;&amp;lt;&amp;lt; Extend &amp;gt;&amp;gt;&lt;/b&gt;&lt;/font&gt;" style="rounded=0;orthogonalLoop=1;jettySize=auto;html=1;dashed=1;dashPattern=8 8;" edge="1" parent="KAtS_63pX_l5U38s632_-2" source="KAtS_63pX_l5U38s632_-10" target="KAtS_63pX_l5U38s632_-13">
          <mxGeometry relative="1" as="geometry" />
        </mxCell>
        <mxCell id="KAtS_63pX_l5U38s632_-37" value="&lt;b&gt;&lt;font style=&quot;font-size: 14px;&quot;&gt;&amp;lt;&amp;lt; Extend &amp;gt;&amp;gt;&lt;/font&gt;&lt;/b&gt;" style="rounded=0;orthogonalLoop=1;jettySize=auto;html=1;dashed=1;dashPattern=8 8;" edge="1" parent="KAtS_63pX_l5U38s632_-2" source="KAtS_63pX_l5U38s632_-10" target="KAtS_63pX_l5U38s632_-12">
          <mxGeometry relative="1" as="geometry" />
        </mxCell>
        <mxCell id="KAtS_63pX_l5U38s632_-10" value="Gerenciar Tarefa" style="ellipse;whiteSpace=wrap;html=1;strokeWidth=2;fontSize=14;fillColor=light-dark(#FFF8D6,#FFF4C3);" vertex="1" parent="KAtS_63pX_l5U38s632_-2">
          <mxGeometry x="160" y="420" width="120" height="80" as="geometry" />
        </mxCell>
        <mxCell id="KAtS_63pX_l5U38s632_-29" value="&lt;b&gt;&lt;font&gt;Sistema&lt;/font&gt;&lt;/b&gt;" style="text;html=1;align=center;verticalAlign=middle;resizable=0;points=[];autosize=1;strokeColor=none;fillColor=none;strokeWidth=2;fontSize=21;" vertex="1" parent="KAtS_63pX_l5U38s632_-2">
          <mxGeometry x="340" y="20" width="100" height="40" as="geometry" />
        </mxCell>
        <mxCell id="KAtS_63pX_l5U38s632_-30" value="Registrar&amp;nbsp;&lt;div&gt;Histórico&lt;/div&gt;" style="ellipse;whiteSpace=wrap;html=1;strokeWidth=2;fontSize=14;fillColor=light-dark(#FFF8D6,#FFF4C3);" vertex="1" parent="KAtS_63pX_l5U38s632_-2">
          <mxGeometry x="640" y="490" width="120" height="80" as="geometry" />
        </mxCell>
        <mxCell id="KAtS_63pX_l5U38s632_-14" value="Organizar&amp;nbsp;&lt;div&gt;Tarefas&lt;/div&gt;" style="ellipse;whiteSpace=wrap;html=1;strokeWidth=2;fontSize=14;fillColor=light-dark(#FFF8D6,#FFF4C3);" vertex="1" parent="KAtS_63pX_l5U38s632_-2">
          <mxGeometry x="250" y="570" width="120" height="80" as="geometry" />
        </mxCell>
        <mxCell id="KAtS_63pX_l5U38s632_-39" value="&lt;b&gt;&lt;font style=&quot;font-size: 14px;&quot;&gt;&amp;lt;&amp;lt; Extend &amp;gt;&amp;gt;&lt;/font&gt;&lt;/b&gt;" style="rounded=0;orthogonalLoop=1;jettySize=auto;html=1;dashed=1;dashPattern=8 8;" edge="1" parent="KAtS_63pX_l5U38s632_-2" source="KAtS_63pX_l5U38s632_-10" target="KAtS_63pX_l5U38s632_-14">
          <mxGeometry relative="1" as="geometry" />
        </mxCell>
        <mxCell id="KAtS_63pX_l5U38s632_-8" value="Organizar notas" style="ellipse;whiteSpace=wrap;html=1;strokeWidth=2;fontSize=14;fillColor=light-dark(#FFF8D6,#FFF4C3);" vertex="1" parent="KAtS_63pX_l5U38s632_-2">
          <mxGeometry x="360" y="150" width="120" height="80" as="geometry" />
        </mxCell>
        <mxCell id="KAtS_63pX_l5U38s632_-24" value="&lt;b&gt;&amp;lt;&amp;lt; Extend &amp;gt;&amp;gt;&lt;/b&gt;" style="rounded=0;orthogonalLoop=1;jettySize=auto;html=1;endArrow=classic;endFill=1;strokeWidth=1;fontSize=14;dashed=1;dashPattern=8 8;" edge="1" parent="KAtS_63pX_l5U38s632_-2" source="KAtS_63pX_l5U38s632_-6" target="KAtS_63pX_l5U38s632_-8">
          <mxGeometry relative="1" as="geometry">
            <mxPoint x="470" y="231" as="sourcePoint" />
            <mxPoint x="1155" y="200" as="targetPoint" />
          </mxGeometry>
        </mxCell>
        <mxCell id="KAtS_63pX_l5U38s632_-5" value="Cadastro / Login" style="ellipse;whiteSpace=wrap;html=1;strokeWidth=2;fontSize=14;fillColor=light-dark(#FFF8D6,#261D00);" vertex="1" parent="KAtS_63pX_l5U38s632_-2">
          <mxGeometry x="90" y="170" width="120" height="80" as="geometry" />
        </mxCell>
        <mxCell id="KAtS_63pX_l5U38s632_-15" value="Pesquisar&amp;nbsp;&lt;div&gt;Nota / Tarefa&lt;/div&gt;" style="ellipse;whiteSpace=wrap;html=1;strokeWidth=2;fontSize=14;fillColor=light-dark(#FFF8D6,#FFF4C3);" vertex="1" parent="KAtS_63pX_l5U38s632_-2">
          <mxGeometry x="70" y="540" width="120" height="80" as="geometry" />
        </mxCell>
        <mxCell id="KAtS_63pX_l5U38s632_-19" style="rounded=0;orthogonalLoop=1;jettySize=auto;html=1;endArrow=none;endFill=0;strokeWidth=1;fontSize=14;" edge="1" parent="1" source="KAtS_63pX_l5U38s632_-1" target="KAtS_63pX_l5U38s632_-10">
          <mxGeometry relative="1" as="geometry">
            <mxPoint y="445" as="sourcePoint" />
            <mxPoint x="122" y="319" as="targetPoint" />
          </mxGeometry>
        </mxCell>
        <mxCell id="KAtS_63pX_l5U38s632_-27" style="rounded=0;orthogonalLoop=1;jettySize=auto;html=1;endArrow=none;endFill=0;strokeWidth=1;fontSize=14;" edge="1" parent="1" source="KAtS_63pX_l5U38s632_-1" target="KAtS_63pX_l5U38s632_-6">
          <mxGeometry relative="1" as="geometry">
            <mxPoint x="410" y="482" as="sourcePoint" />
            <mxPoint x="889" y="220" as="targetPoint" />
          </mxGeometry>
        </mxCell>
        <mxCell id="KAtS_63pX_l5U38s632_-28" style="rounded=0;orthogonalLoop=1;jettySize=auto;html=1;endArrow=none;endFill=0;strokeWidth=1;fontSize=14;" edge="1" parent="1" source="KAtS_63pX_l5U38s632_-1" target="KAtS_63pX_l5U38s632_-5">
          <mxGeometry relative="1" as="geometry">
            <mxPoint x="160" y="534" as="sourcePoint" />
            <mxPoint x="505" y="280" as="targetPoint" />
          </mxGeometry>
        </mxCell>
      </root>
    </mxGraphModel>
  </diagram>
</mxfile>
